<?xml version="1.0" standalone="no"?>
<!DOCTYPE svg PUBLIC "-//W3C//DTD SVG 20010904//EN"
 "http://www.w3.org/TR/2001/REC-SVG-20010904/DTD/svg10.dtd">
<svg version="1.0" xmlns="http://www.w3.org/2000/svg"
 width="1280.000000pt" height="640.000000pt" viewBox="0 0 1280.000000 640.000000"
 preserveAspectRatio="xMidYMid meet">
<metadata>
Created by potrace 1.15, written by Peter Selinger 2001-2017
</metadata>
<g transform="translate(0.000000,640.000000) scale(0.100000,-0.100000)"
fill="#ff5722" stroke="none">
<path d="M6307 5170 c-4 -19 -23 -147 -42 -285 -112 -814 -136 -983 -141
-1006 -4 -23 -12 -27 -72 -39 -84 -16 -217 -62 -305 -106 -327 -161 -591 -479
-667 -802 l-12 -53 -72 5 c-39 3 -111 8 -161 11 -862 55 -2311 259 -3949 556
-182 33 -364 64 -405 69 -105 14 -285 14 -310 0 -53 -28 -13 -92 148 -237 208
-190 394 -330 529 -397 152 -77 451 -183 759 -271 l203 -58 -48 -22 c-316
-148 -400 -537 -168 -783 166 -177 427 -223 645 -113 169 86 272 249 274 436
1 111 -24 193 -88 289 -40 59 -43 66 -22 61 184 -40 943 -165 1005 -165 25 0
24 -2 -25 -52 -200 -203 -203 -497 -8 -693 105 -105 232 -157 383 -156 137 0
224 29 332 110 106 80 172 194 192 329 14 96 -6 201 -58 298 -21 39 -29 64
-21 64 6 0 98 -9 202 -20 168 -17 393 -38 625 -57 68 -5 79 -9 122 -45 25 -21
51 -37 56 -36 5 2 36 -34 70 -78 193 -255 476 -432 802 -501 122 -26 410 -25
535 1 320 67 604 245 792 498 37 48 68 88 70 88 2 0 1 -5 -3 -11 -12 -19 70
30 109 66 l36 33 248 21 c136 12 253 21 259 21 7 0 -5 -34 -26 -76 -98 -194
-68 -399 82 -560 70 -74 184 -137 283 -155 238 -44 478 71 581 277 90 180 63
377 -75 542 l-52 62 29 0 c92 0 1050 143 1299 194 l62 12 -42 -46 c-205 -227
-155 -572 106 -741 95 -62 174 -84 297 -83 87 0 118 5 177 26 308 110 438 448
278 722 -38 66 -143 159 -224 199 l-71 35 88 21 c338 81 723 206 975 316 167
74 400 246 635 470 126 120 152 174 95 196 -59 23 -292 3 -587 -51 -1859 -340
-3473 -560 -4339 -592 l-79 -3 -33 101 c-36 110 -66 173 -122 262 -195 306
-526 524 -885 584 -37 6 -68 16 -68 21 0 11 -174 1191 -188 1282 l-9 50 -6
-35z"/>
</g>
</svg>
